PathFileType	4	(X/Y/Z)	 s08c0103.trc
DataRate	CameraRate	NumFrames	NumMarkers	Units	OrigDataRate	OrigDataStartFrame	OrigNumFrames
200	200	4	50	mm	200	501	2000
Frame#	Time	racr			lacr			c7			jug			rlel			rdr			llel			ldr			s2			lic			ric			lasi			rasi			rpsi			lpsi			rgt			lgt			rth1			rth2			rth3			rth4			rlfc			rmfc			rsh1			rsh2			rsh3			rsh4			rlmal			rmmal			rcal			rtoe			rmt5			lth1			lth2			lth4			lth3			llfc			lmfc			llmal			lmmal			lcal			lmt5			lsh1			lsh2			lsh3			lsh4			ltoe			SBIKE			LBIKE			RBIKE			
		X1	Y1	Z1	X2	Y2	Z2	X3	Y3	Z3	X4	Y4	Z4	X5	Y5	Z5	X6	Y6	Z6	X7	Y7	Z7	X8	Y8	Z8	X9	Y9	Z9	X10	Y10	Z10	X11	Y11	Z11	X12	Y12	Z12	X13	Y13	Z13	X14	Y14	Z14	X15	Y15	Z15	X16	Y16	Z16	X17	Y17	Z17	X18	Y18	Z18	X19	Y19	Z19	X20	Y20	Z20	X21	Y21	Z21	X22	Y22	Z22	X23	Y23	Z23	X24	Y24	Z24	X25	Y25	Z25	X26	Y26	Z26	X27	Y27	Z27	X28	Y28	Z28	X29	Y29	Z29	X30	Y30	Z30	X31	Y31	Z31	X32	Y32	Z32	X33	Y33	Z33	X34	Y34	Z34	X35	Y35	Z35	X36	Y36	Z36	X37	Y37	Z37	X38	Y38	Z38	X39	Y39	Z39	X40	Y40	Z40	X41	Y41	Z41	X42	Y42	Z42	X43	Y43	Z43	X44	Y44	Z44	X45	Y45	Z45	X46	Y46	Z46	X47	Y47	Z47	X48	Y48	Z48	X49	Y49	Z49	X50	Y50	Z50	
501	2.5050	572.424733	1354.856413	-43.632990	605.841819	1340.118737	-345.212494	554.083245	1409.909573	-196.887344	521.339866	1249.629414	-188.500225	574.196207	1089.896476	53.859702	796.896372	909.022220	-40.581868	637.865466	1101.131651	-489.971365	815.428437	892.265610	-410.211412	1.619379	1207.563456	-261.521251	179.865191	1190.602523	-383.621958	139.296698	1222.298173	-74.775093	191.127470	1142.436975	-341.665481	180.882749	1166.517332	-94.288359	27.981092	1252.827388	-210.481586	38.586840	1249.154440	-304.076392	73.260023	1118.596047	-46.389566	127.832791	1078.957550	-421.561433	205.894824	999.900985	-30.399295	287.056883	963.949670	-26.032973	338.949537	894.270608	-32.967571	310.410634	992.539236	-30.596706	430.937239	811.702194	-43.585499	421.620041	801.198064	-156.312300	380.314328	689.137509	-19.471909	388.061189	601.098722	-37.811120	350.436486	523.724945	-46.337209	418.043116	600.002631	-64.953816	321.030406	407.815138	-56.665417	336.917295	431.320515	-144.679439	243.811491	369.497323	-104.220286	541.386713	395.377429	-92.056992	454.305726	351.208336	-29.298612	216.513668	983.456240	-417.427407	287.855078	934.046511	-406.279982	311.780685	955.266153	-388.982320	327.179563	854.067262	-407.507818	375.452173	737.381856	-390.662117	363.134067	709.943177	-283.812752	95.785614	426.613040	-399.445208	128.565894	423.774183	-314.173064	36.451872	450.278615	-357.033870	144.151611	264.000401	-414.300541	296.124115	636.369934	-416.803278	254.660706	562.883594	-399.659897	182.147487	513.259377	-403.846521	271.423583	550.589760	-364.433251	222.751154	229.512820	-344.656345	-177.923724	923.942331	-225.238132	16.478318	83.317095	-424.578123	9.673863	80.219881	-26.654295	
502	2.5100	572.582353	1355.218397	-44.692857	604.132959	1340.223574	-347.602514	552.564070	1410.570158	-198.210556	520.649048	1250.094558	-189.789666	575.143287	1090.513020	53.553683	797.105733	909.097533	-40.061427	636.972361	1100.945735	-491.921360	815.204080	892.198707	-410.590688	0.877186	1204.814334	-259.144575	178.276597	1189.560128	-382.495282	139.995054	1218.681764	-73.008787	190.087125	1141.422067	-340.665725	181.928547	1163.661987	-93.645237	26.976474	1249.628031	-207.070174	37.323222	1246.873921	-301.621515	73.323694	1113.887569	-45.321411	127.521366	1078.216478	-420.941663	205.434344	993.919854	-30.052236	286.224650	957.186058	-25.550309	337.760697	887.287019	-33.009589	309.838554	985.510463	-29.986051	428.949521	803.822529	-43.784632	419.820121	793.570267	-156.981749	379.751999	680.754019	-18.973616	388.423477	592.760683	-37.618154	351.829749	514.880712	-45.978126	418.469227	592.064655	-64.700498	323.362281	398.655406	-56.189207	339.101996	422.188260	-144.188648	245.915481	360.918383	-103.790227	543.813193	384.370057	-92.350643	456.464270	340.962550	-29.441113	217.549060	984.154835	-417.536967	289.943675	936.208248	-406.365253	313.359538	957.915963	-388.910636	331.100095	857.216769	-407.749628	380.808589	741.748987	-391.012647	368.500253	713.970104	-285.036214	95.467912	436.520754	-399.490247	128.479477	433.040388	-314.317838	36.016124	460.643252	-357.139486	142.597282	273.743013	-414.282788	299.953963	642.215011	-416.923764	256.994172	569.438172	-399.794623	183.460594	521.401903	-403.841071	273.632716	556.735282	-364.654229	221.019295	238.906524	-344.660868	-177.902407	923.807108	-225.477764	16.520818	83.158224	-424.619895	9.668146	80.210065	-26.658625	
503	2.5150	572.852713	1355.744194	-45.906740	602.279757	1340.517512	-350.185731	551.058741	1411.391134	-199.795054	520.572445	1250.909784	-191.297505	576.585086	1091.860106	54.087333	797.465035	908.507901	-40.081416	636.049206	1100.823309	-493.479831	815.078868	892.151270	-410.804459	-0.061833	1202.155679	-256.059545	176.421302	1188.646979	-381.012053	140.754257	1215.186728	-71.116010	189.037387	1140.487777	-339.503828	182.960653	1160.900371	-92.983584	26.550374	1246.579760	-204.399171	36.066949	1244.590980	-298.698867	73.610857	1109.115883	-43.982595	126.886207	1077.702664	-420.180629	205.093988	987.960046	-29.617729	285.417476	950.580244	-24.691404	336.775556	880.042063	-32.829099	309.361851	978.301979	-29.556489	426.720132	795.623245	-44.054873	417.548319	785.319842	-156.928722	378.801109	672.126903	-18.757712	388.452394	584.301826	-36.980353	352.825618	505.892100	-45.579189	418.371138	583.853999	-64.587449	325.177473	389.202673	-55.660765	340.610943	413.039805	-143.683944	247.376796	352.151602	-103.379156	545.647999	373.188707	-92.654868	458.002398	330.488669	-29.545017	218.286340	985.088551	-417.493346	291.742332	938.843611	-406.549618	314.675813	960.949396	-389.056236	334.637706	860.683841	-408.066388	385.910230	746.498102	-391.352591	373.762571	718.482150	-286.094368	95.444254	446.458135	-399.401726	128.524627	442.595946	-314.176462	35.836592	471.021930	-357.044660	141.589237	283.692087	-414.247056	303.878568	648.387297	-417.125192	259.439165	576.372501	-399.828534	184.967403	529.817400	-403.787738	276.047541	563.559457	-365.095040	219.962471	248.486317	-344.641115	-177.821142	923.773711	-225.483458	16.518354	83.261533	-424.550696	9.731503	80.156802	-26.667770	
504	2.5200	573.188920	1356.556768	-47.348340	600.270919	1340.959163	-352.688444	549.524304	1412.478472	-201.476383	520.604068	1251.860050	-193.035700	578.614071	1093.197032	54.729504	796.517163	907.288928	-41.444873	635.071427	1100.587792	-494.512759	815.054859	892.162828	-410.920084	-1.407640	1199.558941	-251.454260	174.453360	1188.010479	-379.498017	141.670600	1211.687564	-69.172158	187.817619	1139.897561	-338.282007	183.972613	1158.253019	-92.305320	25.921655	1243.959996	-200.917766	34.649739	1242.260219	-295.327188	74.141680	1104.338574	-42.670688	125.922786	1077.413149	-419.256231	204.830039	982.030086	-29.135583	284.706412	943.669294	-24.407774	334.496448	872.173223	-33.054011	308.925233	971.120746	-29.178641	424.249884	787.228896	-44.388240	414.747898	776.506232	-156.880958	377.330086	663.135836	-18.433677	387.967525	575.568910	-36.784948	353.155122	496.700464	-45.385940	417.918744	575.378620	-64.540940	326.305082	379.920665	-55.110509	342.044876	404.368210	-142.622635	248.378018	343.455257	-102.806167	546.833026	362.012285	-92.778789	458.967723	319.915612	-29.602537	218.704258	986.319223	-417.463707	293.275902	941.582109	-406.474093	315.664851	964.314873	-389.301241	338.006995	864.727544	-408.832753	390.813604	751.664684	-391.751125	378.914774	723.454476	-287.006875	95.671194	456.554088	-399.149351	120.199723	449.810135	-319.330951	35.706840	481.371658	-356.866076	141.250137	293.892647	-414.131975	307.651706	654.790161	-417.064994	261.961653	583.722550	-400.018688	186.508871	538.515745	-403.569005	278.264222	570.305292	-364.933555	219.515226	258.430029	-344.674496	-177.746498	923.763949	-225.156488	16.551123	83.272813	-424.551232	9.748200	80.137164	-26.652365	
